<?xml version="1.0" standalone="no"?>
<!DOCTYPE svg PUBLIC "-//W3C//DTD SVG 20010904//EN"
 "http://www.w3.org/TR/2001/REC-SVG-20010904/DTD/svg10.dtd">
<svg version="1.0" xmlns="http://www.w3.org/2000/svg"
 width="2006.000000pt" height="2006.000000pt" viewBox="0 0 2006.000000 2006.000000"
 preserveAspectRatio="xMidYMid meet">
<metadata>
Created by potrace 1.11, written by Peter Selinger 2001-2013
</metadata>
<g transform="translate(0.000000,2006.000000) scale(0.100000,-0.100000)"
fill="#000000" stroke="none">
<path d="M9146 18813 c-1 -1 -150 -4 -331 -8 -182 -3 -433 -7 -560 -10 -260
-5 -771 -14 -1100 -20 -121 -2 -346 -7 -500 -10 -154 -2 -424 -7 -600 -10
-176 -3 -412 -8 -525 -10 -113 -2 -360 -7 -550 -10 -190 -4 -433 -8 -540 -10
-551 -11 -915 -18 -1007 -19 -57 0 -103 -3 -103 -6 0 -3 33 -18 73 -34 39 -16
90 -37 112 -46 22 -10 155 -66 295 -125 140 -59 269 -113 285 -120 17 -7 55
-23 85 -35 30 -12 73 -30 95 -40 55 -24 847 -358 915 -385 30 -12 174 -73 320
-134 275 -117 298 -126 620 -261 107 -45 209 -88 225 -95 17 -8 98 -41 180
-75 83 -34 168 -70 190 -80 36 -16 282 -119 755 -317 85 -36 173 -73 195 -83
22 -10 81 -34 130 -55 50 -20 105 -43 123 -51 17 -8 47 -20 65 -28 17 -8 63
-27 100 -41 37 -15 66 -29 65 -31 -2 -2 -31 3 -63 11 -33 7 -73 16 -90 18 -16
3 -76 15 -133 26 -56 11 -117 23 -135 26 -17 3 -39 8 -47 10 -8 2 -31 7 -50
10 -19 3 -42 8 -50 10 -8 2 -31 7 -50 10 -19 3 -42 8 -51 11 -10 2 -30 7 -45
9 -16 2 -40 7 -54 10 -14 3 -36 7 -50 10 -14 3 -59 12 -100 20 -41 8 -120 24
-175 35 -55 10 -111 22 -125 24 -62 13 -127 27 -150 31 -14 3 -47 9 -75 15
-27 5 -61 12 -75 14 -14 2 -106 21 -205 41 -99 20 -191 39 -205 41 -14 2 -56
11 -95 19 -38 8 -81 16 -95 19 -14 2 -104 20 -200 40 -96 19 -186 37 -200 39
-14 3 -61 13 -105 22 -44 9 -91 19 -105 21 -14 3 -104 21 -200 40 -96 19 -186
37 -200 40 -14 2 -36 7 -50 9 -14 3 -36 8 -50 10 -14 3 -61 12 -105 21 -44 8
-91 17 -105 20 -14 3 -33 7 -42 10 -10 3 -30 7 -45 10 -16 2 -39 7 -53 9 -14
3 -38 8 -55 11 -16 2 -64 12 -105 21 -41 8 -86 18 -100 20 -14 3 -88 18 -166
34 -77 15 -154 30 -170 33 -16 3 -121 24 -234 47 -113 22 -216 43 -230 45 -14
3 -104 21 -200 40 -96 20 -186 38 -200 40 -14 3 -32 7 -40 10 -31 11 32 -38
335 -261 171 -126 387 -286 480 -355 248 -185 435 -322 475 -350 19 -14 42
-30 50 -37 13 -11 105 -79 469 -348 52 -39 168 -124 257 -190 89 -66 287 -212
439 -325 152 -113 352 -260 443 -328 92 -68 177 -131 190 -140 13 -9 51 -38
85 -63 66 -49 260 -193 299 -221 13 -9 68 -50 123 -91 55 -41 260 -192 455
-337 195 -144 355 -265 355 -269 0 -4 -64 -50 -141 -103 -78 -52 -148 -100
-155 -107 -8 -6 -43 -34 -79 -63 -393 -308 -737 -743 -958 -1208 -43 -89 -198
-329 -681 -1055 -344 -517 -629 -942 -632 -945 -3 -3 -8 -9 -10 -15 -4 -10
-136 -211 -152 -230 -4 -5 -22 -32 -39 -60 -18 -27 -35 -52 -39 -55 -3 -3 -8
-9 -10 -15 -4 -10 -216 -329 -232 -350 -4 -5 -22 -32 -40 -60 -17 -27 -35 -54
-40 -60 -4 -5 -56 -83 -115 -172 -59 -89 -113 -170 -119 -180 -7 -10 -27 -40
-45 -68 -18 -27 -36 -51 -40 -53 -5 -2 -8 -8 -8 -13 0 -10 -62 -103 -72 -107
-5 -2 -8 -8 -8 -13 0 -5 -14 -28 -30 -51 -17 -23 -29 -43 -27 -45 3 -3 114
-42 552 -195 110 -38 236 -82 280 -98 44 -16 163 -58 265 -93 102 -36 426
-149 720 -252 294 -103 625 -218 735 -257 530 -185 557 -194 720 -253 72 -26
137 -48 145 -50 8 -2 80 -27 160 -55 277 -99 515 -182 547 -191 38 -11 66 -37
60 -53 -5 -10 -271 -600 -322 -711 -12 -27 -75 -167 -140 -310 -114 -254 -150
-334 -202 -444 -13 -29 -40 -88 -58 -130 -18 -42 -48 -110 -68 -151 -28 -61
-164 -361 -247 -545 -59 -130 -216 -478 -235 -520 -13 -27 -69 -151 -125 -275
-57 -124 -120 -263 -142 -310 -22 -47 -57 -123 -78 -170 -21 -47 -57 -125 -80
-175 -23 -49 -75 -162 -115 -250 -75 -166 -177 -386 -225 -490 -32 -68 -72
-156 -135 -295 -24 -52 -64 -139 -89 -193 -25 -54 -46 -103 -46 -109 0 -15 53
-98 63 -98 4 0 7 -4 7 -9 0 -8 447 -685 506 -766 8 -11 37 -56 65 -100 29 -44
56 -81 60 -83 5 -2 9 -8 9 -13 0 -8 128 -204 152 -234 9 -11 86 -127 103 -154
6 -9 19 -29 30 -44 l20 -28 175 76 c96 42 254 110 350 152 96 41 193 84 215
93 22 10 87 39 145 63 114 48 826 357 900 389 25 11 59 26 75 33 101 43 256
110 290 125 22 10 103 45 180 78 212 90 603 260 663 288 29 13 60 24 70 24 9
0 206 -48 437 -106 231 -58 427 -107 435 -109 8 -1 35 -8 60 -15 25 -7 52 -14
60 -15 12 -3 111 -27 200 -50 90 -22 149 -37 170 -41 14 -2 39 -9 55 -14 27
-8 1500 -378 1535 -385 8 -2 132 -33 275 -69 143 -36 271 -68 284 -71 13 -2
38 -9 55 -14 17 -6 42 -12 56 -15 14 -3 70 -17 125 -31 55 -14 110 -28 123
-31 13 -2 130 -32 260 -65 130 -33 251 -63 267 -66 17 -3 37 -8 45 -12 8 -4
22 -7 32 -7 20 1 748 564 749 580 0 6 1 373 2 815 0 753 2 806 18 825 10 12
61 77 114 146 53 69 101 132 108 140 44 53 42 34 41 528 l-1 471 186 75 c102
41 234 93 293 117 l108 42 -5 51 c-3 28 -7 69 -10 91 -2 22 -7 74 -10 115 -3
41 -8 93 -10 115 -4 42 -11 114 -20 230 -3 39 -8 84 -10 102 -3 17 -7 69 -10
115 -3 46 -8 97 -10 113 -2 17 -7 66 -10 110 -3 44 -8 90 -10 102 -3 20 3 25
52 39 30 9 63 18 72 19 9 2 16 4 16 5 0 1 7 3 15 5 33 7 783 203 980 256 41
11 85 22 97 25 12 2 34 9 48 14 14 5 25 7 25 5 0 -2 11 0 25 5 14 5 36 12 48
14 23 5 319 82 350 92 9 3 15 8 13 12 -2 4 -7 36 -11 72 -4 36 -9 74 -11 84
-2 11 -6 44 -9 75 -6 59 -10 86 -20 161 -3 25 -8 57 -9 70 -11 85 -19 148 -21
170 -2 14 -6 49 -10 79 l-6 53 83 -6 c82 -6 197 -13 353 -21 210 -11 296 -15
360 -20 39 -2 124 -7 190 -10 66 -4 149 -8 185 -10 92 -6 238 -14 358 -20 56
-3 130 -8 163 -10 l60 -4 35 77 c20 42 44 95 54 117 25 52 90 206 90 211 0 2
-7 4 -15 4 -8 0 -15 3 -15 6 0 7 64 171 86 219 19 44 65 167 69 188 2 9 7 22
10 28 15 24 130 377 185 569 74 259 128 480 179 735 39 194 45 226 55 290 15
101 19 122 22 139 2 11 8 56 14 100 6 45 13 92 15 106 7 47 14 115 20 183 4
37 8 76 10 85 1 10 6 62 10 117 4 55 9 108 11 118 10 57 19 369 18 682 0 371
-7 556 -29 770 -2 22 -7 76 -11 120 -3 44 -7 87 -9 95 -2 8 -6 44 -10 80 -6
66 -8 80 -20 160 -11 73 -14 93 -20 140 -3 25 -13 83 -21 130 -8 47 -17 99
-19 115 -4 25 -57 290 -70 345 -2 8 -8 38 -15 65 -31 142 -108 435 -144 550
-1 6 -8 30 -15 55 -44 156 -206 620 -271 775 -5 11 -18 42 -29 69 -25 58 -26
66 -6 66 8 0 15 2 15 4 0 4 -28 70 -66 154 -13 29 -24 54 -24 56 0 3 -20 47
-44 98 l-45 94 -43 -2 c-165 -9 -254 -15 -328 -19 -47 -3 -123 -7 -170 -10
-145 -8 -292 -16 -370 -20 -41 -2 -117 -7 -167 -10 -51 -3 -135 -7 -185 -10
-122 -7 -242 -14 -353 -20 -49 -3 -133 -7 -185 -10 -52 -3 -131 -8 -175 -10
-44 -3 -125 -8 -180 -10 -105 -5 -204 -11 -345 -19 -47 -3 -134 -8 -195 -11
-60 -3 -128 -8 -151 -10 l-40 -4 -316 312 c-174 172 -670 663 -1103 1092 -432
429 -924 915 -1091 1080 l-305 300 -122 39 c-67 22 -126 41 -132 42 -11 3
-1621 537 -1761 584 -100 34 -113 36 -264 45 -161 9 -247 14 -345 20 -138 9
-200 13 -320 20 -60 3 -137 8 -170 10 -55 4 -146 10 -330 20 -127 7 -229 14
-305 21 -66 6 -599 12 -604 7z"/>
<path d="M2495 17121 c10 -17 171 -251 182 -266 4 -5 41 -59 82 -120 41 -60
81 -118 89 -128 8 -9 20 -26 26 -37 6 -11 29 -45 51 -77 23 -32 90 -130 150
-218 60 -88 113 -164 117 -170 5 -5 41 -57 80 -115 75 -111 146 -215 271 -395
42 -60 113 -164 158 -230 119 -174 208 -303 244 -355 33 -47 179 -260 249
-365 23 -33 43 -62 46 -65 3 -3 40 -57 83 -120 43 -63 123 -180 178 -260 55
-80 117 -170 137 -200 20 -30 39 -57 42 -60 3 -3 19 -25 35 -50 17 -25 98
-144 180 -264 83 -120 177 -258 211 -307 l61 -89 94 76 c52 42 103 83 114 92
11 10 214 175 450 367 237 192 435 354 441 360 6 6 34 28 62 50 29 21 49 42
44 46 -4 5 -160 122 -347 262 -187 140 -351 264 -365 274 -14 11 -299 226
-635 477 -335 251 -623 467 -639 479 -16 12 -62 47 -103 77 -40 30 -103 78
-140 105 -38 28 -70 52 -73 55 -3 3 -153 116 -334 250 -180 135 -333 250 -340
255 -6 6 -126 95 -266 200 -140 104 -257 192 -260 195 -3 3 -21 17 -40 30 -19
13 -37 27 -40 30 -4 4 -132 99 -289 214 -12 9 -13 8 -6 -3z"/>
<path d="M2223 15864 c-92 -102 -108 -120 -167 -185 -28 -31 -67 -73 -86 -95
-63 -71 -224 -249 -239 -265 -16 -15 -67 -72 -262 -289 -51 -58 -98 -110 -104
-116 -5 -6 -44 -48 -85 -94 -41 -46 -84 -93 -95 -105 -32 -34 -115 -125 -190
-209 -38 -43 -80 -89 -93 -103 -13 -14 -22 -27 -20 -28 5 -5 92 -14 198 -20
52 -4 110 -8 129 -10 18 -3 72 -7 120 -10 84 -5 162 -11 271 -20 30 -2 91 -7
135 -10 44 -3 100 -8 125 -10 25 -2 83 -6 130 -10 47 -3 105 -7 130 -9 25 -3
90 -8 145 -12 55 -3 114 -8 130 -9 17 -1 73 -6 125 -10 52 -4 113 -9 135 -11
22 -2 87 -6 144 -9 97 -6 103 -5 98 12 -3 10 -35 104 -72 208 -37 105 -71 201
-75 215 -4 14 -31 90 -60 170 -28 80 -85 242 -126 360 -77 219 -120 342 -156
440 -11 30 -21 60 -23 65 -1 6 -5 17 -8 25 -26 69 -67 189 -67 198 0 30 -24
15 -87 -54z"/>
<path d="M4679 12786 c-2 -2 -51 -7 -109 -11 -58 -3 -130 -8 -160 -10 -120 -9
-209 -15 -285 -20 -87 -6 -172 -12 -280 -20 -135 -10 -191 -14 -280 -20 -49
-3 -112 -8 -140 -10 -27 -2 -90 -7 -140 -10 -49 -3 -117 -8 -150 -10 -33 -3
-96 -7 -140 -10 -124 -8 -224 -15 -290 -20 -33 -3 -94 -7 -135 -10 -132 -8
-224 -15 -280 -20 -30 -3 -100 -7 -155 -10 -55 -3 -116 -7 -135 -10 -19 -2
-82 -7 -140 -10 -58 -3 -121 -8 -140 -10 -19 -1 -80 -6 -135 -10 -55 -3 -125
-8 -155 -10 -30 -2 -95 -7 -145 -10 -49 -3 -110 -8 -135 -10 -25 -2 -92 -7
-150 -10 -58 -4 -123 -8 -145 -10 -22 -2 -80 -7 -130 -10 -49 -3 -91 -7 -93
-10 -2 -2 37 -24 86 -49 50 -25 119 -60 154 -79 35 -19 131 -69 213 -112 177
-92 337 -175 420 -220 33 -18 141 -74 240 -125 99 -51 209 -109 245 -128 36
-19 130 -69 210 -110 136 -70 223 -115 430 -224 47 -25 155 -81 240 -126 85
-44 216 -112 290 -151 242 -127 319 -165 323 -161 2 3 60 88 129 190 69 102
145 214 169 250 24 36 46 67 49 70 3 3 46 66 96 140 50 74 119 176 153 225 35
50 83 119 106 155 24 36 70 103 102 150 323 470 405 592 401 595 -3 3 -7 3 -9
1z"/>
<path d="M1118 10516 c-35 -36 -373 -388 -420 -437 -29 -32 -126 -133 -214
-225 -89 -93 -185 -194 -214 -224 -28 -30 -96 -100 -149 -155 -118 -122 -122
-127 -84 -121 15 3 57 8 93 11 36 4 72 8 80 10 16 3 143 18 170 20 8 1 33 4
55 8 22 4 60 9 85 12 25 2 155 18 290 35 135 17 261 32 280 35 19 2 51 6 70 9
19 3 55 7 80 10 25 3 173 22 330 42 157 19 302 37 323 39 21 2 55 6 75 9 49 7
108 15 157 21 22 2 56 6 75 9 19 3 60 7 90 11 30 3 66 8 80 10 14 2 46 7 71
10 196 23 282 35 286 39 2 2 -33 23 -79 46 -46 24 -105 55 -133 70 -27 15
-111 59 -185 97 -74 39 -187 97 -250 130 -63 34 -160 84 -215 113 -167 87
-386 202 -460 241 -171 90 -266 139 -270 139 -2 0 -10 -6 -17 -14z"/>
<path d="M2206 8588 c4 -7 55 -71 113 -143 58 -71 110 -136 116 -143 5 -7 15
-18 20 -25 6 -7 49 -59 95 -117 47 -58 92 -114 101 -125 10 -11 72 -87 138
-170 67 -82 127 -157 134 -165 12 -14 253 -312 506 -625 63 -77 216 -266 340
-419 124 -153 293 -362 375 -463 81 -101 152 -183 157 -181 4 2 77 69 161 149
84 80 171 163 193 183 22 21 78 75 125 119 142 136 428 409 488 466 32 29 122
115 202 191 80 76 172 164 204 195 34 32 56 59 50 64 -5 5 -56 24 -114 44 -58
19 -211 72 -340 117 -129 45 -260 90 -290 100 -30 10 -161 55 -290 100 -129
45 -311 108 -405 140 -93 32 -276 95 -405 140 -129 45 -298 103 -375 130 -138
47 -182 62 -680 235 -137 47 -304 105 -370 127 -66 22 -149 51 -184 64 -74 28
-75 28 -65 12z"/>
<path d="M2533 6482 c-12 -26 -59 -123 -104 -217 -45 -93 -98 -206 -119 -250
-21 -44 -75 -156 -120 -250 -45 -93 -104 -215 -130 -270 -84 -178 -147 -308
-203 -425 l-56 -114 37 -12 c20 -6 120 -35 222 -64 102 -28 221 -62 265 -75
86 -26 750 -214 775 -220 8 -2 166 -47 350 -100 184 -53 342 -98 350 -100 8
-2 125 -36 260 -74 135 -39 251 -71 257 -71 10 0 -99 148 -254 345 -13 17 -27
35 -31 40 -4 6 -44 57 -88 115 -188 244 -537 697 -552 715 -10 11 -46 59 -81
105 -84 111 -125 164 -131 170 -3 3 -25 32 -50 65 -24 33 -50 66 -57 75 -7 8
-68 87 -135 175 -68 89 -129 167 -136 175 -7 8 -62 80 -123 160 -61 80 -113
146 -117 147 -4 2 -17 -19 -29 -45z"/>
</g>
</svg>
