<?xml version="1.0" standalone="no"?>
<!DOCTYPE svg PUBLIC "-//W3C//DTD SVG 20010904//EN"
 "http://www.w3.org/TR/2001/REC-SVG-20010904/DTD/svg10.dtd">
<svg version="1.0" xmlns="http://www.w3.org/2000/svg"
 width="3382.000000pt" height="3382.000000pt" viewBox="0 0 3382.000000 3382.000000"
 preserveAspectRatio="xMidYMid meet">
<metadata>
Created by potrace 1.11, written by Peter Selinger 2001-2013
</metadata>
<g transform="translate(0.000000,3382.000000) scale(0.100000,-0.100000)"
fill="#000000" stroke="none">
<path d="M6889 30228 c-24 -22 -71 -65 -104 -96 -33 -30 -89 -83 -125 -116
-79 -73 -152 -141 -335 -311 -77 -71 -166 -155 -199 -185 -33 -30 -80 -74
-106 -98 l-45 -43 45 6 c45 6 193 31 240 40 43 8 324 57 355 61 17 3 64 11
105 19 41 7 91 16 110 19 19 3 62 10 95 16 33 6 74 13 90 15 17 3 53 9 80 14
28 6 64 12 80 15 28 4 356 61 420 73 17 3 36 6 43 6 17 0 26 -8 -198 182 -102
86 -196 167 -210 178 -14 12 -68 58 -120 102 -52 44 -106 90 -120 103 -47 44
-54 44 -101 0z"/>
<path d="M12756 28578 l1 -1683 -147 -445 c-81 -245 -261 -789 -400 -1210
-139 -421 -301 -911 -360 -1090 -59 -179 -126 -382 -149 -452 -22 -69 -44
-134 -47 -142 -6 -15 121 -16 1364 -16 1084 0 1372 -3 1379 -12 5 -7 94 -204
198 -438 104 -234 201 -452 216 -485 15 -33 108 -242 207 -465 99 -223 197
-441 218 -485 20 -44 37 -84 37 -90 0 -5 -21 -63 -46 -128 -118 -297 -209
-624 -257 -927 -17 -105 -18 -112 -26 -175 -3 -33 -8 -67 -9 -75 -20 -110 -28
-687 -12 -865 7 -85 24 -224 32 -272 2 -12 9 -57 15 -100 9 -61 47 -246 75
-363 28 -117 143 -477 167 -523 9 -18 -35 -114 -177 -382 -23 -44 -82 -156
-130 -250 -48 -93 -120 -233 -160 -310 -40 -77 -111 -214 -157 -305 -47 -91
-120 -232 -163 -315 -43 -82 -114 -220 -157 -305 -44 -85 -109 -209 -143 -275
-34 -66 -113 -219 -175 -340 -62 -121 -117 -225 -122 -232 -5 -7 -8 -16 -5
-20 3 -4 903 -8 2001 -8 l1996 0 0 -190 -1 -190 -135 -140 c-75 -77 -191 -197
-257 -266 -67 -69 -219 -226 -337 -349 -118 -122 -240 -248 -270 -280 -30 -31
-150 -156 -266 -276 -116 -121 -242 -250 -279 -289 -101 -105 -451 -468 -528
-547 -80 -83 -97 -107 -102 -147 -2 -16 -8 -47 -14 -68 -9 -34 -15 -65 -26
-128 -1 -11 -19 -96 -39 -190 -19 -93 -42 -204 -50 -245 -8 -41 -40 -196 -71
-345 -31 -148 -59 -281 -61 -295 -13 -67 -76 -378 -98 -480 -13 -63 -27 -128
-29 -145 -3 -16 -23 -115 -45 -220 -22 -104 -43 -203 -45 -220 -3 -16 -26
-131 -52 -255 -26 -124 -49 -234 -51 -245 -2 -11 -6 -31 -9 -45 -3 -14 -7 -36
-10 -49 -3 -14 -14 -70 -26 -125 -11 -56 -23 -112 -25 -126 -10 -50 -145 -707
-156 -755 -6 -27 -12 -59 -14 -70 -1 -11 -25 -130 -53 -264 l-51 -244 20 -31
c10 -17 297 -448 637 -957 340 -509 1028 -1541 1528 -2292 501 -751 913 -1366
918 -1366 4 -1 7 4 7 9 0 6 9 29 19 53 11 23 117 274 236 557 119 283 226 535
237 560 11 25 41 94 65 155 25 60 56 134 69 163 13 29 24 55 24 57 0 3 9 24
19 48 11 23 93 215 181 427 89 212 168 399 176 416 7 17 64 150 125 295 61
145 153 363 204 484 51 121 128 303 170 405 42 102 84 199 91 217 11 23 61 65
187 154 94 67 251 179 347 248 96 68 184 124 194 123 11 0 31 -5 45 -11 14 -5
98 -32 186 -60 88 -27 234 -73 325 -101 91 -29 170 -53 175 -54 6 -2 39 -12
75 -23 36 -12 205 -65 375 -118 494 -153 594 -185 690 -215 50 -16 164 -51
255 -79 218 -68 261 -81 285 -91 11 -4 61 -20 110 -35 50 -15 126 -38 170 -52
44 -13 85 -26 90 -27 6 -2 17 -6 25 -9 8 -3 69 -22 135 -42 66 -20 170 -52
230 -72 61 -19 115 -36 120 -37 22 -5 133 -39 185 -56 30 -11 127 -41 215 -69
88 -27 241 -75 340 -106 343 -108 630 -197 660 -205 17 -5 161 -49 320 -99
160 -51 333 -105 385 -121 52 -17 98 -30 102 -31 4 0 37 -11 72 -23 36 -13 67
-20 68 -17 2 4 70 58 151 121 82 63 257 200 390 303 133 103 252 196 264 205
12 9 132 103 267 207 l245 190 1 1084 0 1084 27 36 c15 20 33 43 40 51 29 36
180 230 198 255 11 15 40 53 65 84 l45 56 0 631 0 632 170 68 c94 37 188 75
210 84 22 10 120 48 218 86 l178 69 -7 100 c-3 54 -7 106 -9 115 -2 8 -6 53
-10 100 -3 47 -8 101 -10 120 -4 42 -13 136 -20 223 -3 34 -8 82 -10 107 -6
50 -12 130 -20 235 -3 39 -7 86 -10 105 -2 19 -7 69 -10 110 -4 41 -8 89 -10
105 -2 17 -6 66 -10 110 -4 44 -8 92 -11 106 -4 25 0 28 59 43 34 9 157 41
272 71 116 30 296 77 400 104 105 28 217 57 250 66 33 9 85 23 115 30 49 12
263 68 470 123 41 12 163 43 270 71 396 103 485 128 483 137 -1 5 -7 55 -13
111 -6 56 -13 110 -15 122 -2 11 -6 46 -10 78 -3 32 -8 69 -10 83 -2 14 -7 50
-10 80 -3 30 -8 66 -10 80 -2 14 -6 48 -10 75 -3 28 -8 66 -10 85 -25 191 -35
274 -35 289 0 13 7 17 33 15 17 -2 84 -5 147 -8 63 -4 142 -8 175 -11 33 -3
110 -7 170 -10 190 -10 257 -13 370 -20 61 -4 137 -9 170 -10 102 -5 307 -16
375 -21 36 -2 115 -6 175 -9 61 -3 145 -8 188 -10 156 -10 333 -20 497 -28
l34 -2 61 130 c94 203 175 391 175 406 0 5 -9 9 -20 9 -11 0 -20 2 -20 4 0 8
110 280 120 298 6 10 10 23 10 29 0 6 6 25 14 42 14 31 61 158 125 337 26 73
84 250 151 465 41 128 132 463 175 642 25 103 48 199 52 213 3 14 8 34 10 45
2 11 16 81 33 155 25 119 42 207 56 290 2 14 9 45 14 70 5 25 11 61 14 80 3
19 16 105 29 190 14 85 28 180 32 210 4 30 9 62 10 70 2 8 6 44 10 80 4 36 9
79 11 95 2 17 8 77 14 135 6 58 13 121 15 140 2 19 7 67 10 105 2 39 7 102 11
140 19 229 28 532 28 905 -1 437 -10 674 -39 1020 -3 30 -7 83 -10 117 -8 90
-14 142 -50 443 -8 62 -25 183 -35 240 -9 53 -15 95 -26 170 -3 19 -7 46 -10
60 -2 14 -6 34 -8 45 -2 11 -12 61 -21 110 -9 50 -19 101 -21 115 -3 14 -18
90 -35 170 -17 80 -33 156 -35 170 -3 14 -28 117 -55 230 -133 546 -326 1148
-533 1659 -36 89 -66 165 -66 167 0 2 9 4 20 4 11 0 20 4 20 10 0 11 -121 289
-187 430 -50 105 -50 105 -84 103 -164 -9 -351 -20 -504 -28 -66 -3 -147 -8
-180 -10 -33 -3 -114 -7 -180 -11 -66 -3 -145 -7 -175 -9 -30 -1 -111 -6 -180
-9 -69 -4 -152 -9 -185 -11 -33 -3 -107 -7 -165 -10 -58 -3 -148 -8 -200 -11
-52 -3 -131 -7 -175 -9 -165 -9 -282 -15 -345 -20 -63 -4 -237 -14 -350 -20
-197 -10 -304 -16 -370 -20 -41 -3 -122 -7 -180 -10 -396 -21 -460 -25 -540
-30 -83 -5 -204 -12 -355 -20 -55 -3 -134 -8 -175 -10 -41 -2 -129 -7 -195
-10 -66 -3 -142 -8 -170 -10 -27 -2 -103 -7 -167 -11 l-118 -6 -1 29 c0 15 -2
37 -4 48 -2 11 -7 40 -10 65 -3 25 -10 79 -15 120 -5 41 -12 98 -15 125 -3 28
-7 61 -10 74 -2 13 -7 49 -10 80 -9 100 -17 125 -53 171 -20 25 -39 47 -42 50
-3 3 -23 28 -45 55 -21 28 -42 52 -45 55 -3 3 -25 30 -50 60 -24 30 -51 63
-60 72 -8 9 -19 23 -25 30 -5 7 -76 92 -156 188 -80 96 -255 308 -389 470
-134 162 -249 300 -255 306 -5 7 -26 31 -45 55 -47 57 -146 178 -173 209 -12
14 -64 77 -116 140 -52 63 -97 117 -101 120 -3 3 -24 27 -45 55 -22 27 -50 61
-61 75 -12 14 -57 68 -100 120 -43 52 -83 100 -89 107 -11 12 -6 7 -265 318
-100 121 -194 234 -208 252 -15 17 -79 94 -142 171 l-115 141 -1030 342 c-566
188 -1419 471 -1895 629 -476 158 -1186 393 -1577 523 l-713 237 -3557 0
-3558 0 1 -1682z"/>
<path d="M11150 28915 c-36 -7 -81 -15 -100 -19 -194 -37 -240 -46 -270 -51
-19 -3 -80 -14 -135 -25 -55 -11 -113 -22 -130 -25 -16 -2 -41 -7 -55 -10 -14
-3 -41 -8 -60 -11 -19 -3 -51 -9 -70 -14 -19 -5 -53 -11 -75 -15 -22 -3 -47
-7 -55 -10 -8 -2 -32 -6 -52 -9 -21 -3 -57 -10 -80 -15 -24 -6 -59 -13 -78
-16 -19 -3 -127 -23 -240 -45 -113 -21 -221 -42 -240 -45 -19 -3 -92 -17 -161
-31 -70 -13 -139 -27 -155 -29 -16 -2 -40 -6 -54 -9 -14 -3 -83 -17 -155 -30
-71 -14 -141 -28 -155 -31 -14 -3 -45 -8 -70 -11 -25 -3 -48 -8 -51 -10 -3 -2
-20 -6 -37 -9 -18 -3 -44 -7 -59 -10 -16 -2 -53 -9 -83 -15 -30 -6 -77 -15
-105 -20 -27 -5 -111 -21 -185 -35 -74 -15 -148 -28 -165 -31 -16 -3 -61 -11
-100 -19 -38 -8 -86 -17 -105 -20 -19 -3 -42 -8 -50 -10 -8 -2 -31 -7 -50 -10
-19 -3 -82 -15 -140 -26 -58 -11 -114 -22 -125 -24 -11 -1 -81 -14 -155 -28
-74 -14 -146 -28 -160 -30 -14 -3 -43 -8 -65 -12 -22 -4 -49 -10 -60 -12 -11
-3 -26 -5 -33 -5 -16 -2 -10 -18 39 -124 22 -46 39 -86 39 -88 0 -3 15 -38 34
-78 56 -120 76 -166 386 -863 164 -368 309 -695 323 -725 28 -62 22 -49 181
-409 65 -145 121 -271 126 -280 4 -9 15 -32 23 -51 8 -19 24 -55 35 -81 12
-25 69 -153 127 -285 59 -131 115 -257 125 -279 10 -22 45 -101 78 -175 33
-74 69 -155 80 -180 11 -25 30 -67 41 -94 13 -30 25 -46 30 -40 5 5 51 83 102
174 50 91 100 180 111 198 10 18 36 66 58 105 22 40 44 79 50 87 5 8 35 62 67
119 95 172 100 180 113 196 7 8 9 15 5 15 -5 0 -1 8 7 18 8 9 46 73 84 142 38
69 73 133 79 142 5 9 31 54 56 100 26 46 77 137 114 203 37 66 79 140 93 165
14 25 62 110 107 190 45 80 93 165 107 190 14 25 87 155 163 290 76 135 149
265 163 290 13 25 32 59 42 75 10 17 29 50 43 75 98 176 188 337 196 350 6 8
36 62 68 119 94 171 100 180 111 193 6 7 11 18 13 23 1 6 7 19 14 30 7 11 56
99 110 195 113 201 102 182 250 445 62 110 123 218 135 240 25 47 54 97 82
143 l20 32 -24 -1 c-13 -1 -52 -7 -88 -14z"/>
<path d="M3350 27136 c0 -732 1 -776 18 -777 22 -1 2397 -1 2436 0 26 1 20 7
-50 49 -43 27 -114 71 -157 98 -43 27 -89 56 -102 64 -90 55 -319 198 -360
225 -27 18 -214 135 -415 260 -483 302 -1028 642 -1115 697 -108 69 -229 144
-242 152 -10 6 -13 -151 -13 -768z"/>
<path d="M628 25202 c-21 -61 -389 -1174 -392 -1187 -2 -5 -6 -17 -9 -25 -3
-8 -55 -165 -115 -349 l-110 -333 81 6 c45 4 98 8 117 11 19 2 64 6 100 10 36
3 81 8 100 10 33 3 65 7 200 20 30 3 73 8 95 10 22 2 72 7 110 10 39 3 81 8
95 10 14 3 54 7 90 10 36 3 81 7 100 10 19 2 67 7 105 10 39 3 88 8 110 11 66
7 120 13 283 29 26 2 74 7 107 10 33 3 76 7 95 10 19 2 64 7 100 10 36 3 81 8
100 10 19 2 62 7 95 10 111 11 150 15 195 20 25 3 67 7 94 10 27 2 76 6 110
10 34 3 82 8 109 10 151 15 230 25 235 29 1 2 -36 32 -84 67 -47 35 -91 69
-97 74 -7 6 -158 121 -337 256 -677 511 -826 623 -855 646 -40 31 -44 34 -90
68 -22 17 -46 35 -55 42 -8 7 -78 60 -155 117 -77 58 -144 109 -150 113 -5 5
-84 65 -175 132 -91 68 -170 128 -175 132 -7 5 -17 -10 -27 -39z"/>
<path d="M5072 22420 c14 -19 80 -100 431 -530 114 -140 213 -262 220 -270 28
-35 102 -125 107 -130 3 -3 41 -50 85 -105 44 -55 85 -105 91 -112 6 -6 44
-52 85 -103 l74 -91 30 33 c17 18 122 139 235 268 112 129 216 249 231 265 37
42 386 443 422 485 17 19 59 67 94 106 110 122 110 114 1 115 -51 1 -118 2
-148 4 -30 1 -134 6 -230 10 -96 4 -209 8 -250 10 -41 2 -151 6 -245 10 -93 3
-210 8 -260 10 -228 11 -441 19 -745 30 -107 3 -206 8 -218 10 -21 4 -22 2
-10 -15z"/>
<path d="M9894 21961 c4 -45 9 -92 11 -104 2 -12 6 -53 10 -90 3 -37 8 -76 10
-85 2 -10 6 -54 9 -97 4 -44 8 -87 11 -95 2 -8 6 -46 10 -85 3 -38 8 -83 10
-100 2 -16 7 -57 10 -90 7 -73 13 -125 20 -185 3 -25 8 -72 10 -105 3 -33 7
-71 10 -85 4 -29 12 -101 20 -180 3 -30 8 -71 10 -90 3 -19 7 -64 10 -100 3
-36 8 -76 10 -90 3 -23 14 -124 20 -195 2 -16 6 -52 9 -80 15 -121 19 -154 31
-290 4 -38 8 -77 10 -85 1 -8 6 -49 10 -90 4 -41 9 -86 10 -100 3 -26 9 -84
25 -225 5 -44 12 -107 15 -140 3 -33 8 -76 10 -95 2 -19 7 -62 10 -95 4 -33 8
-71 11 -85 2 -14 6 -55 9 -90 3 -36 7 -76 10 -90 2 -14 6 -59 10 -100 3 -41 8
-82 10 -90 2 -8 6 -46 10 -85 3 -38 7 -86 10 -105 2 -19 7 -60 10 -90 3 -30 8
-71 10 -90 2 -19 7 -64 11 -100 3 -36 7 -72 9 -80 2 -8 6 -52 10 -98 4 -45 10
-94 14 -108 6 -24 7 -24 26 -7 11 10 50 40 85 68 36 27 101 78 145 112 44 35
141 110 215 168 300 235 724 566 1055 825 193 150 366 286 385 301 19 15 71
55 116 90 108 86 98 78 525 411 206 161 376 298 377 303 2 9 -121 82 -678 407
-58 34 -139 81 -180 105 -41 25 -82 49 -90 53 -8 5 -51 30 -95 56 -44 26 -91
53 -105 61 -14 8 -37 22 -52 31 -15 9 -98 58 -185 109 -87 50 -259 151 -383
223 -124 73 -245 144 -270 159 -25 14 -102 59 -170 99 -69 40 -132 77 -140 82
-80 46 -202 118 -232 137 -21 12 -39 23 -42 23 -2 0 -73 41 -157 91 -85 51
-168 99 -184 109 -57 32 -280 163 -310 181 -16 10 -37 22 -45 26 -8 3 -28 15
-44 26 l-29 20 7 -82z"/>
<path d="M3185 20514 c-82 -35 -169 -73 -192 -84 -24 -11 -45 -20 -49 -20 -3
0 -29 -11 -57 -24 -53 -24 -247 -107 -772 -333 -159 -68 -308 -132 -330 -142
-22 -10 -111 -49 -197 -86 -87 -37 -158 -70 -158 -74 0 -4 8 -7 18 -7 18 -1
42 -5 222 -34 36 -5 76 -12 90 -14 24 -5 170 -27 200 -31 8 -1 33 -5 55 -9 48
-8 147 -24 195 -31 19 -3 46 -7 60 -10 14 -2 43 -7 65 -10 49 -7 64 -9 185
-29 52 -9 113 -18 135 -21 22 -4 51 -8 65 -11 14 -2 84 -13 155 -24 72 -11
141 -22 155 -24 14 -3 60 -10 103 -16 82 -12 84 -12 182 -29 33 -6 78 -13 100
-16 23 -3 52 -7 65 -10 13 -3 42 -7 65 -10 22 -3 65 -10 95 -15 30 -5 69 -11
85 -14 17 -2 59 -9 95 -15 36 -5 85 -13 110 -16 25 -3 52 -8 60 -10 8 -2 33
-7 55 -10 22 -3 82 -12 134 -20 52 -8 96 -13 98 -11 3 3 -478 664 -524 721 -5
6 -84 114 -178 240 -93 127 -172 232 -177 233 -4 2 -8 9 -8 15 -1 11 -45 67
-52 67 -2 -1 -70 -30 -153 -66z"/>
<path d="M6274 19283 c3 -10 12 -49 21 -88 35 -152 67 -291 71 -315 3 -14 10
-43 16 -65 5 -22 11 -47 13 -55 8 -39 48 -216 71 -310 14 -58 28 -116 30 -130
3 -13 14 -63 25 -110 12 -47 23 -96 25 -110 4 -19 36 -154 48 -205 2 -5 9 -38
16 -73 7 -34 16 -64 19 -66 3 -3 66 37 139 87 73 51 189 130 257 177 69 47
204 139 300 205 96 66 346 237 555 380 209 143 380 262 380 265 0 5 -62 20
-145 36 -11 2 -72 15 -135 29 -97 22 -220 48 -280 60 -15 3 -551 118 -725 156
-49 11 -99 21 -110 24 -11 2 -94 20 -185 39 -91 19 -210 45 -265 56 -55 11
-110 23 -123 26 -19 4 -23 1 -18 -13z"/>
<path d="M5902 16549 c-16 -35 -43 -93 -60 -129 -16 -36 -69 -145 -116 -244
-47 -98 -86 -179 -86 -181 0 -1 -34 -74 -76 -161 -42 -88 -87 -184 -101 -214
-14 -30 -61 -129 -104 -219 -44 -90 -79 -165 -79 -166 0 -2 -34 -74 -76 -161
-42 -88 -90 -188 -106 -224 -36 -78 -119 -252 -125 -263 -4 -7 43 -5 142 8 17
2 57 6 90 10 33 3 74 8 90 10 17 2 60 7 95 10 36 3 76 8 90 10 14 2 59 7 100
10 41 4 83 9 92 10 9 2 48 6 85 10 37 3 84 8 103 10 19 3 58 7 85 10 28 3 66
8 85 10 19 3 62 7 95 11 33 3 71 7 85 9 14 2 54 6 90 10 36 4 81 9 100 11 19
2 60 7 90 9 30 3 71 7 90 10 19 2 60 7 90 10 30 3 71 8 90 10 19 3 58 7 85 10
61 6 138 14 185 20 19 2 64 7 100 10 36 3 76 8 90 10 14 3 52 7 85 10 33 3 74
7 90 9 17 3 62 7 100 11 39 4 72 9 74 11 3 2 -4 12 -15 23 -10 10 -69 72 -130
137 -61 65 -129 138 -150 160 -22 23 -88 94 -149 159 -60 64 -132 141 -160
170 -27 29 -77 81 -109 116 -53 57 -204 218 -411 438 -78 83 -82 87 -250 266
-66 71 -152 162 -191 203 l-72 76 -30 -65z"/>
<path d="M12375 16079 c-66 -28 -192 -80 -280 -115 -88 -36 -169 -69 -180 -74
-11 -5 -110 -45 -220 -90 -110 -45 -209 -85 -220 -90 -11 -5 -49 -21 -85 -35
-36 -15 -78 -32 -95 -40 -16 -7 -115 -48 -220 -90 -104 -42 -203 -83 -220 -90
-16 -7 -142 -59 -280 -115 -137 -55 -259 -105 -270 -110 -31 -14 -365 -151
-415 -170 -47 -18 -330 -134 -365 -149 -46 -20 -100 -43 -282 -117 l-193 -78
17 -25 c9 -14 39 -57 68 -96 106 -144 321 -438 346 -473 14 -20 103 -143 197
-272 95 -129 222 -304 283 -388 61 -83 115 -154 119 -157 5 -3 31 21 57 52 44
53 381 448 442 518 14 17 51 59 81 95 30 36 60 70 65 76 6 6 30 35 55 64 25
29 50 58 55 64 6 6 100 117 210 246 110 129 211 249 226 265 15 17 139 161
275 320 136 160 253 295 258 301 6 6 29 33 51 59 22 27 45 53 50 59 6 6 44 52
85 101 41 50 80 95 86 100 6 6 33 37 60 70 27 33 54 65 60 71 5 6 30 35 55 64
24 29 49 58 54 64 33 36 182 213 189 224 9 15 20 19 -119 -39z"/>
<path d="M12730 14161 c26 -75 161 -453 300 -841 139 -388 274 -766 300 -840
26 -74 52 -145 57 -158 8 -22 11 -21 88 43 44 36 87 71 95 78 33 27 277 231
300 251 14 11 160 133 325 271 165 137 309 257 320 267 11 9 135 112 275 228
300 249 313 260 308 265 -2 3 -92 25 -198 51 -190 45 -229 55 -375 88 -68 15
-268 62 -770 181 -132 31 -249 59 -260 61 -11 2 -32 6 -47 10 -15 3 -29 5 -30
4 -2 -1 -15 3 -30 9 -25 9 -263 66 -326 77 -14 3 -28 7 -32 9 -4 2 -40 11 -81
20 -90 19 -88 19 -169 39 -36 9 -72 18 -82 20 -13 3 -7 -23 32 -133z"/>
<path d="M7800 12239 c-30 -4 -80 -10 -110 -14 -30 -3 -62 -7 -70 -10 -8 -2
-45 -6 -82 -10 -37 -3 -77 -8 -90 -10 -13 -2 -48 -6 -78 -10 -30 -3 -66 -7
-80 -9 -14 -3 -68 -10 -120 -16 -52 -6 -106 -13 -120 -15 -14 -2 -50 -7 -80
-10 -92 -10 -133 -15 -170 -20 -49 -7 -107 -14 -160 -20 -45 -5 -95 -12 -160
-20 -19 -3 -53 -7 -75 -9 -22 -3 -62 -8 -90 -12 -69 -9 -86 -11 -117 -13 -37
-1 -35 -15 5 -35 17 -10 64 -37 102 -62 39 -24 77 -47 85 -51 8 -4 58 -33 110
-65 213 -131 281 -172 309 -188 21 -12 152 -92 272 -165 9 -5 45 -27 80 -48
35 -21 208 -125 384 -232 176 -107 352 -213 390 -236 108 -65 397 -241 423
-257 18 -12 22 -12 18 -1 -3 8 -50 156 -106 329 -56 173 -105 326 -110 340 -5
14 -59 180 -121 370 -153 473 -163 503 -174 505 -6 1 -35 -1 -65 -6z"/>
<path d="M10426 11322 c29 -81 68 -192 87 -247 20 -55 78 -221 130 -370 53
-148 130 -369 173 -490 42 -121 100 -285 128 -365 28 -80 110 -313 181 -518
l130 -373 35 5 c48 8 90 15 120 21 61 13 77 16 103 20 15 3 42 8 60 11 17 3
41 8 52 10 11 1 56 10 100 18 44 8 94 18 110 21 17 3 53 10 80 15 82 17 97 19
140 26 22 3 72 12 110 21 39 8 79 16 90 17 31 5 86 15 280 52 99 18 191 36
205 38 14 2 77 14 140 26 63 12 126 24 140 26 14 3 50 9 80 15 58 11 90 17
154 28 l39 6 -109 81 c-162 120 -317 234 -524 384 -102 74 -189 138 -195 143
-15 12 -180 133 -535 392 -179 131 -343 251 -365 267 -22 16 -83 61 -135 99
-52 38 -99 72 -105 77 -5 4 -93 68 -195 142 -102 74 -189 139 -195 143 -27 22
-532 390 -546 397 -11 7 -1 -33 37 -138z"/>
</g>
</svg>
